<?xml version="1.0" encoding="UTF-8"?>
<!DOCTYPE svg PUBLIC "-//W3C//DTD SVG 1.1//EN" "http://www.w3.org/Graphics/SVG/1.1/DTD/svg11.dtd">
<!-- Creator: CorelDRAW X7 -->
<svg xmlns="http://www.w3.org/2000/svg" xml:space="preserve" width="189.238mm" height="33.7405mm" version="1.1" style="shape-rendering:geometricPrecision; text-rendering:geometricPrecision; image-rendering:optimizeQuality; fill-rule:evenodd; clip-rule:evenodd"
viewBox="0 0 18997 3387"
 xmlns:xlink="http://www.w3.org/1999/xlink">
 <defs>
  <style type="text/css">
   <![CDATA[
    .str0 {stroke:#FEFEFE;stroke-width:20.0772}
    .fil0 {fill:#FEFEFE}
   ]]>
  </style>
 </defs>
 <g id="Layer_x0020_1">
  <metadata id="CorelCorpID_0Corel-Layer"/>
  <g id="_1473245279680">
   <polygon class="fil0 str0" points="2738,1447 2981,1447 2984,2848 2739,2851 2739,3371 4040,3371 4043,2851 3801,2850 3798,1448 4043,1446 4042,930 2746,929 "/>
   <path class="fil0 str0" d="M15708 3371l734 0c51,-178 95,-350 146,-527 23,-84 47,-176 70,-259 33,-124 60,-140 25,-269 -43,-157 -258,-980 -298,-1058l-235 984c-9,-11 -9,-9 -19,-30 -30,-63 -306,-1181 -351,-1281l-796 -2c-3,60 457,1568 539,1833 60,192 114,430 185,609z"/>
   <path class="fil0 str0" d="M13738 1426l310 0 0 1448c-70,0 -140,1 -209,0 -105,-2 -105,-17 -103,88 1,131 -5,274 2,404 108,19 443,9 569,6 97,-2 219,-159 324,-263 209,-205 233,-178 231,-351l0 -1178c1,-203 34,-132 -212,-371 -388,-376 -173,-280 -913,-280l1 497z"/>
   <path class="fil0 str0" d="M12486 1443l0 1411c0,53 341,362 399,419 126,125 75,98 310,98 136,0 273,0 409,0l-2 -497 -300 0 0 -1448 302 0 -2 -497c-137,0 -272,0 -407,0 -235,0 -181,-26 -308,97 -59,58 -401,362 -401,417z"/>
   <path class="fil0 str0" d="M9807 3370l809 1c20,-141 11,-2391 -5,-2442l-798 0 -6 2441z"/>
   <path class="fil0 str0" d="M874 3371l782 0 -838 -2443 -808 1c-12,39 786,2269 864,2442z"/>
   <polygon class="fil0 str0" points="17094,3371 17867,3371 17246,935 16427,929 "/>
   <path class="fil0 str0" d="M17757 380l254 70c-30,211 -132,477 -185,686 -58,233 -114,469 -174,702 -39,151 -1,202 37,351 31,119 58,232 88,349 33,129 142,616 185,692 151,-596 382,-1321 556,-1939 6,-24 13,-53 21,-74 34,-98 14,18 86,-243 29,-108 65,-228 88,-336l261 66 -346 -520c-32,-46 -85,-135 -123,-173 -68,20 -700,331 -748,369z"/>
   <path class="fil0 str0" d="M8046 1416l592 0 0 836 -587 3c-6,43 -24,447 15,477 22,17 761,16 849,10 83,-6 384,-344 451,-410 80,-79 84,-50 82,-204l0 -575c1,-159 13,-130 -73,-214l-357 -356c-86,-90 -171,-54 -392,-54 -193,0 -386,0 -580,0l0 487z"/>
   <path class="fil0 str0" d="M5361 1415l591 1 0 838 -587 1 -2 465c96,41 674,25 849,22 99,-2 122,-61 173,-112 99,-99 189,-188 289,-287 75,-75 91,-53 89,-201l0 -589c1,-158 5,-130 -79,-212 -100,-99 -188,-189 -289,-287 -40,-39 -95,-119 -157,-125l-870 1 -7 485z"/>
   <path class="fil0 str0" d="M10750 1416l612 0 -1 749 -608 0 -3 473c350,0 271,26 264,-67l624 -80c186,-26 88,-9 176,26 42,-62 143,-152 202,-210 209,-209 154,-84 154,-686 0,-274 26,-177 -321,-519 -117,-115 -139,-173 -245,-174 -282,0 -564,1 -846,1 -22,82 -8,382 -8,487z"/>
   <path class="fil0 str0" d="M4433 3367l633 4 -465 -403c-45,-36 -109,-107 -164,-134 14,-24 6,-14 26,-41 10,-14 15,-18 26,-30 30,-32 32,-35 57,-66 35,-44 78,-93 114,-131l218 -263c54,20 265,219 353,284l1 -1655 -795 -2 -4 2437z"/>
   <path class="fil0 str0" d="M1792 930l-181 591c-65,203 -120,394 -184,598 -45,145 -18,143 32,288 35,101 68,197 101,296l147 428c10,28 15,44 24,72l38 79c88,-263 831,-2289 829,-2353l-806 1z"/>
   <path class="fil0 str0" d="M7118 2797l438 -491c50,31 123,99 171,144 32,29 55,43 89,76 35,33 52,50 102,77 0,-200 13,-1599 -10,-1674l-784 0 -6 1868z"/>
   <path class="fil0 str0" d="M11039 2638l346 733 861 0 -447 -838c-159,99 13,105 -333,105 -142,0 -285,0 -427,0z"/>
   <path class="fil0 str0" d="M7119 3370l608 -2c-15,-11 -44,-42 -65,-59l-229 -196c-56,-50 -98,-90 -154,-134 -59,-47 -93,-86 -161,-131l1 522z"/>
  </g>
 </g>
</svg>
